<svg width="128" height="128" viewBox="0 0 128 128" fill="none" xmlns="http://www.w3.org/2000/svg">
<g clip-path="url(#clip0)">
<rect width="128" height="128" rx="24" fill="#FF6B17"/>
<path d="M29.696 63.22C38.2213 63.22 45.152 65.2746 50.488 69.384C55.8853 73.4933 59.0747 79.0746 60.056 86.128H38.528C37.7307 84.84 36.596 83.8586 35.124 83.184C33.652 82.448 31.8733 82.08 29.788 82.08C25.8627 82.08 22.8267 83.368 20.68 85.944C18.5333 88.4586 17.46 91.924 17.46 96.34C17.46 101.431 18.656 105.233 21.048 107.748C23.44 110.263 27.12 111.52 32.088 111.52C36.8107 111.52 40.6133 109.619 43.496 105.816H27.212V91.372H60.424V111.796C57.6027 116.641 53.708 120.812 48.74 124.308C43.772 127.743 37.4853 129.46 29.88 129.46C23.1333 129.46 17.2453 128.08 12.216 125.32C7.24801 122.499 3.41468 118.573 0.71601 113.544C-1.92132 108.515 -3.23999 102.78 -3.23999 96.34C-3.23999 89.9 -1.92132 84.1653 0.71601 79.136C3.41468 74.1066 7.24801 70.212 12.216 67.452C17.184 64.6306 23.0107 63.22 29.696 63.22Z" fill="#1774FF"/>
<path d="M128.04 63.864V129H107.616V103.608H88.2037V129H67.7797V63.864H88.2037V87.324H107.616V63.864H128.04Z" fill="#1774FF"/>
</g>
<defs>
<clipPath id="clip0">
<rect width="128" height="128" rx="24" fill="white"/>
</clipPath>
</defs>
</svg>
