<?xml version="1.0" standalone="no"?>
<!DOCTYPE svg PUBLIC "-//W3C//DTD SVG 20010904//EN"
 "http://www.w3.org/TR/2001/REC-SVG-20010904/DTD/svg10.dtd">
<svg version="1.0" xmlns="http://www.w3.org/2000/svg"
 width="384.000000pt" height="384.000000pt" viewBox="0 0 384.000000 384.000000"
 preserveAspectRatio="xMidYMid meet">
<metadata>
Created by potrace 1.11, written by Peter Selinger 2001-2013
</metadata>
<g transform="translate(0.000000,384.000000) scale(0.100000,-0.100000)"
fill="#000000" stroke="none">
<path d="M889 3836 c-2 -2 -47 -6 -99 -10 -321 -21 -509 -96 -625 -251 -64
-85 -116 -219 -131 -338 -3 -23 -7 -53 -10 -67 -15 -88 -19 -340 -19 -1255 0
-1141 2 -1213 47 -1395 26 -107 49 -160 100 -235 78 -115 202 -194 368 -233
189 -45 253 -47 1385 -47 1175 0 1234 2 1432 50 252 62 415 242 462 513 6 31
13 71 16 87 16 93 20 341 20 1270 0 1141 -2 1213 -47 1395 -26 107 -49 160
-100 235 -98 145 -283 237 -518 260 -36 4 -76 9 -90 13 -26 6 -2184 14 -2191
8z"/>
</g>
</svg>
