<svg width="188" height="102" viewBox="0 0 188 102" fill="none" xmlns="http://www.w3.org/2000/svg">
<path d="M30.6957 64.155C21.9549 64.155 14.871 57.0389 14.871 48.2612C14.871 39.483 21.9549 32.3737 30.6957 32.3737C33.7766 32.3737 36.653 33.2559 39.0829 34.7851L30.6957 48.2612L46.4854 39.1074C44.7699 36.3631 42.3094 33.9985 39.3343 32.2041C35.5485 29.9284 30.2821 28.52 24.4588 28.52C16.152 28.52 8.86444 31.5508 4.80035 36.0894C1.79141 39.4446 0 43.6673 0 48.261C0 52.8579 1.79141 57.0837 4.80035 60.4412C8.87501 64.9856 16.054 67.9986 24.2238 67.9986C32.3924 67.9986 39.5693 64.9832 43.6466 60.4412C43.8698 60.1911 44.086 59.9387 44.2905 59.6768L43.6748 57.3598C40.8101 61.4652 36.0655 64.155 30.6957 64.155Z" fill="white"/>
<path d="M83.0443 67.0429L76.4173 42.2213C75.3528 38.2102 71.715 35.2621 67.3839 35.2621C66.2606 35.2621 65.1843 35.4636 64.1856 35.8284L49.9187 41.0371H64.5921L67.0996 50.4391C64.6673 48.3373 61.4995 47.0585 58.0309 47.0585C51.1431 47.0585 45.5665 51.6927 45.5665 57.4092C45.5665 63.1262 51.1431 67.7673 58.0309 67.7673C62.9894 67.7673 67.3745 65.3299 70.0794 61.5855L71.534 67.0429H83.0443ZM62.8296 63.1875C59.6524 63.1875 57.0768 60.6039 57.0768 57.4092C57.0768 54.2192 59.6524 51.6332 62.8296 51.6332C66.0068 51.6332 68.5848 54.2192 68.5848 57.4092C68.5848 60.6039 66.0068 63.1875 62.8296 63.1875Z" fill="white"/>
<path d="M110.065 35.2664C109.195 35.2664 108.373 35.4594 107.639 35.8051L98.4791 40.0913C98.0256 37.3534 95.6568 35.2664 92.7992 35.2664C91.9344 35.2664 91.1095 35.4594 90.3669 35.8051L79.1833 41.0372H87.0464V67.0432H98.5567V43.9304C98.5567 42.3356 99.8421 41.0374 101.435 41.0374C103.019 41.0374 104.314 42.3356 104.314 43.9304V67.0432H115.82V41.0372C115.82 37.8479 113.242 35.2664 110.065 35.2664Z" fill="white"/>
<path d="M182.247 35.2664C181.375 35.2664 180.548 35.4594 179.803 35.8051L170.652 40.0913C170.201 37.3534 167.832 35.2664 164.975 35.2664C164.11 35.2664 163.285 35.4594 162.54 35.8051L151.361 41.0372H159.222V67.0432H170.73V43.9304C170.73 42.3356 172.018 41.0374 173.611 41.0374C175.2 41.0374 176.485 42.3356 176.485 43.9304V67.0432H188V41.0372C188 37.8479 185.42 35.2664 182.247 35.2664Z" fill="white"/>
<path d="M153.222 51.6331C153.222 60.6724 145.926 67.9986 136.925 67.9986C127.918 67.9986 120.616 60.6724 120.616 51.6331C120.616 42.5961 127.918 35.2664 136.925 35.2664C145.926 35.2664 153.222 42.5963 153.222 51.6331ZM137.6 40.2336C137.087 38.3078 135.116 37.1646 133.198 37.6823C131.283 38.1978 130.138 40.1786 130.653 42.1042L136.244 63.0319C136.761 64.9596 138.728 66.1016 140.645 65.5919C142.563 65.0705 143.703 63.0909 143.188 61.1656L137.6 40.2336Z" fill="white"/>
</svg>
