<svg width="204" height="102" viewBox="0 0 204 102" fill="none" xmlns="http://www.w3.org/2000/svg">
<path fill-rule="evenodd" clip-rule="evenodd" d="M194.083 44.8901L204 44.8323C204 44.8323 201.578 47.3278 199.444 50.2884C197.312 53.2504 187.425 66.5727 187.425 66.5727C187.425 66.5727 182.265 73.887 179.382 76.9948C177.911 78.5789 172.058 84.4185 164.422 86.7154C157.09 88.9205 147.933 87.618 147.933 87.618C147.933 87.618 142.976 86.8926 142.342 85.7599C141.709 84.6284 142.342 84.5404 142.889 84.4524C143.437 84.3669 146.521 84.8887 148.338 85.1212C149.227 85.2344 152.912 85.9384 157.126 85.5952C161.537 85.2344 166.493 83.8037 168.027 83.0305C171.025 81.5219 175.549 78.648 177.481 75.1065C179.412 71.5663 179.931 69.331 179.441 67.8526C178.951 66.3716 175.173 59.6934 173.474 56.7051C171.772 53.7155 168.878 49.1871 167.709 47.7665C167.409 47.4019 166.727 46.6728 166.107 46.107C165.356 45.4219 164.681 44.9203 164.681 44.9203L172.609 44.6563C172.609 44.6563 174.252 44.6563 174.828 45.6444C175.404 46.6313 184.486 63.0602 184.486 63.0602C184.486 63.0602 184.918 63.9025 185.38 63.8723C185.843 63.8434 186.303 63.3493 186.649 62.7987C186.995 62.2455 192.125 53.8287 192.125 53.8287C192.125 53.8287 195.21 48.7207 195.239 47.5013C195.268 46.2818 194.893 45.5853 194.751 45.4106C194.605 45.2383 194.085 44.8901 194.085 44.8901H194.083ZM149.745 65.6462C149.745 65.4953 149.645 65.1986 149.238 65.1986C148.53 65.1986 144.883 67.7306 135.565 67.7306C123.513 67.7306 118.146 61.8721 118.146 56.6598C118.146 48.717 128.578 44 144.578 44C146.402 44 148.124 44.1006 149.847 44.2011C156.806 44.5934 157.34 45.1604 157.34 45.1604V61.5754C157.34 63.4612 157.34 65.5984 159.161 66.9361L150.15 67.5332L149.742 65.6475L149.745 65.6462ZM149.845 49.3631C149.845 47.0298 148.731 45.789 143.567 45.789C132.325 45.789 126.246 49.9603 126.246 55.6202C126.246 60.1372 130.705 65.1496 141.135 65.1496C147.011 65.1496 149.846 62.9659 149.846 60.1862V49.3631H149.845ZM93.6523 67.7809C89.6023 67.7809 86.1581 67.3824 82.4135 66.6872C81.2996 66.4885 80.6889 66.2899 80.6889 65.5959C80.6889 64.4041 81.0956 63.2123 81.1958 61.9715C84.3371 64.4544 86.8652 65.9944 93.5521 65.9944C99.5257 65.9944 103.071 64.6027 103.071 61.7728C103.071 55.717 83.0192 56.7089 83.0192 49.3644C83.0192 45.6406 88.8927 44.0515 98.4131 44.0515C101.451 44.0515 104.591 44.2992 107.628 44.6462C107.932 44.6965 108.945 44.7945 108.945 45.0938C108.945 45.9864 108.845 47.4246 108.742 48.4668C104.792 46.0354 102.766 45.5375 98.109 45.5375C94.1579 45.5375 90.5122 46.4301 90.5122 48.5674C90.5122 54.4736 111.575 53.7784 111.575 60.6791C111.575 65.3935 102.26 67.7771 93.651 67.7771L93.6523 67.7809ZM74.0082 47.5101C71.0721 47.5101 68.0334 46.2252 65.8056 46.2252C61.5504 46.2252 61.2501 49.5442 61.2501 51.0352V61.4371C61.2501 63.2726 61.2501 65.9605 63.0698 67.3497H51.9311C53.7534 65.9618 53.7534 63.2764 53.7534 61.4384V49.8937C53.7534 45.129 61.4503 44.1861 69.9582 44.1861C72.2861 44.1861 77.1483 44.3332 77.1483 45.9713C77.1483 46.9142 75.7291 47.5101 74.0069 47.5101H74.0082ZM19.5452 67.7796C5.56932 67.7796 0 62.1688 0 56.7592C0 49.0652 8.71068 44.0528 23.8993 44.0528C37.8752 44.0528 43.4457 49.6598 43.4457 55.072C43.4457 62.766 34.7351 67.7796 19.5452 67.7796V67.7796ZM20.5589 45.8393C11.0385 45.8393 8.50667 50.4569 8.50667 54.5767C8.50667 60.3849 12.1524 65.9944 22.8868 65.9944C32.406 65.9944 34.9391 61.3768 34.9391 57.257C34.9391 51.4488 31.2933 45.8418 20.5589 45.8418V45.8393Z" fill="white"/>
</svg>
