<svg width="186" height="102" viewBox="0 0 186 102" fill="none" xmlns="http://www.w3.org/2000/svg">
<path d="M26.1182 34.6778H0.547934V42.8845H17.3512C18.4471 42.8845 19.1777 43.7963 19.1777 44.7082V59.1155H15.5248C14.4289 59.1155 13.6984 58.2036 13.6984 57.2918V46.8966H6.57521C2.92232 46.8966 0 49.8146 0 53.462V60.7568C0 64.4042 2.92232 67.3222 6.57521 67.3222H32.6934V41.2432C32.6934 37.5957 29.7711 34.6778 26.1182 34.6778Z" fill="white"/>
<path d="M57.3504 59.1155H53.6975C52.6017 59.1155 51.8711 58.2036 51.8711 57.2918V34.6778H44.748C41.0951 34.6778 38.1727 37.5957 38.1727 41.2432V60.7568C38.1727 64.4043 41.0951 67.3222 44.748 67.3222H70.8661V21H57.1678L57.3504 59.1155Z" fill="white"/>
<path d="M95.5232 59.1155H91.8703C90.7744 59.1155 90.0438 58.2036 90.0438 57.2918V34.6778H76.3455V60.7568C76.3455 64.4042 79.2678 67.3222 82.9207 67.3222H95.5232V71.3343H76.8934V80.8176H102.646C106.299 80.8176 109.222 77.8997 109.222 74.2523V34.6778H95.5232V59.1155Z" fill="white"/>
<path d="M140.819 34.6778H114.518V60.7568C114.518 64.4042 117.441 67.3222 121.093 67.3222H146.846V59.1155H130.043C128.947 59.1155 128.217 58.2036 128.217 57.2918V42.8845H131.869C132.965 42.8845 133.696 43.7963 133.696 44.7082V55.1033H140.819C144.472 55.1033 147.394 52.1854 147.394 48.538V41.2432C147.394 37.5957 144.472 34.6778 140.819 34.6778Z" fill="white"/>
<path d="M178.992 34.6778H152.874V67.3222H166.572V42.8845H170.225C171.321 42.8845 172.051 43.7963 172.051 44.7082V67.3222H185.75V41.2432C185.567 37.5957 182.645 34.6778 178.992 34.6778Z" fill="white"/>
</svg>
