<svg width="259" height="102" viewBox="0 0 259 102" fill="none" xmlns="http://www.w3.org/2000/svg">
<path fill-rule="evenodd" clip-rule="evenodd" d="M68.1901 44.7821H74.0434C76.3272 44.7821 77.1956 45.5697 77.1956 47.4988C77.1956 49.3563 76.3267 50.143 74.0434 50.143H68.1901V44.7821ZM59.1222 64.2936H68.1905V56.3596H77.9037C84.3346 56.3596 86.6501 52.5734 86.6501 47.6783C86.6501 41.996 84.2692 38.7806 77.8382 38.7806H59.1222V64.2936Z" fill="white"/>
<path fill-rule="evenodd" clip-rule="evenodd" d="M89.6406 38.7806H114.047V44.9968H98.709V48.4273H112.955V54.6461H98.709V58.0762H114.047V64.2936H89.6406V38.7806Z" fill="white"/>
<path fill-rule="evenodd" clip-rule="evenodd" d="M126.911 44.7821H132.764C135.047 44.7821 135.916 45.5697 135.916 47.4988C135.916 49.3563 135.047 50.143 132.764 50.143H126.911V44.7821ZM117.843 64.2936H126.911V56.3596H136.623C143.055 56.3596 145.371 52.5734 145.371 47.6783C145.371 41.996 142.99 38.7806 136.558 38.7806H117.843V64.2936Z" fill="white"/>
<path fill-rule="evenodd" clip-rule="evenodd" d="M154.149 53.4666C149.712 52.715 147.88 49.8565 147.88 46.2841C147.88 39.6724 153.701 37.8874 161.159 37.8874C171.384 37.8874 175.598 40.8521 175.92 46.2486H165.372C165.372 45.212 164.825 44.5675 163.99 44.2106C163.186 43.8186 162.157 43.6759 161.159 43.6759C158.458 43.6759 157.527 44.4253 157.527 45.4983C157.527 46.2117 157.815 46.6779 158.715 46.8202L169.552 48.6061C174.119 49.3564 176.95 51.7149 176.95 56.0375C176.95 62.2572 172.383 65.1872 162.188 65.1872C155.21 65.1872 147.589 64.1155 147.557 56.6113H158.49C158.521 57.4678 158.812 58.0394 159.456 58.4328C160.129 58.7906 161.127 58.9697 162.541 58.9697C165.371 58.9697 166.144 58.1114 166.144 56.8962C166.144 56.1459 165.725 55.3961 164.505 55.1827L154.149 53.4666Z" fill="white"/>
<path fill-rule="evenodd" clip-rule="evenodd" d="M179.907 38.7806H188.975V64.2936H179.907V38.7806Z" fill="white"/>
<path fill-rule="evenodd" clip-rule="evenodd" d="M222.582 54.3598C222.003 57.7188 220.973 60.4346 218.721 62.2921C216.504 64.1505 213.03 65.1871 207.5 65.1871C202.001 65.1871 191.807 64.7573 191.807 51.5378C191.807 38.3157 202.001 37.8868 207.5 37.8868C212.965 37.8868 221.391 38.6722 222.582 48.786H212.356C212.098 46.9618 211.003 44.318 207.5 44.318C203.8 44.318 201.453 46.3547 201.453 51.5374C201.453 56.7187 203.736 58.754 207.049 58.754C209.911 58.754 211.616 57.4321 212.355 54.3594L222.582 54.3598Z" fill="white"/>
<path fill-rule="evenodd" clip-rule="evenodd" d="M234.447 51.5384C234.447 46.3553 236.796 44.3191 240.494 44.3191C244.192 44.3191 246.54 46.3557 246.54 51.5384C246.54 56.7197 244.192 58.7551 240.494 58.7551C236.796 58.7546 234.447 56.7193 234.447 51.5384ZM224.799 51.5384C224.799 64.7574 234.993 65.1876 240.494 65.1876C245.993 65.1876 256.187 64.7578 256.187 51.5384C256.187 38.3163 245.993 37.8874 240.494 37.8874C234.993 37.8874 224.799 38.3158 224.799 51.5384Z" fill="white"/>
<path fill-rule="evenodd" clip-rule="evenodd" d="M45.4195 39.0336C46.005 26.7932 35.4431 13.0087 21.0442 11.3048L21.0688 11.1375C35.2639 11.1375 46.146 24.2714 46.146 34.6328C46.1324 36.7897 45.962 38.1261 45.658 39.0964L45.4195 39.0336ZM44.5594 40.5895C43.6149 41.7428 42.4271 42.904 41.0355 44.0064C38.4754 29.2908 27.6557 16.423 20.0062 12.6671L19.8424 12.7813C27.5353 19.0914 36.7109 31.3467 40.2791 44.5837C38.5721 45.8411 36.5989 46.9984 34.4187 47.9379C27.1593 39.664 20.3915 23.7073 18.2105 13.5816L17.9886 13.6483C18.0378 23.4772 25.0201 40.1628 33.5349 48.3045C31.6452 49.0495 29.6131 49.6303 27.4791 49.9767C19.317 46.7451 13.5072 36.3946 13.5072 25.7917C13.5072 18.8701 15.6188 14.5883 16.0273 13.712L15.8533 13.6431C15.3592 14.3903 12.2658 18.6699 12.2658 26.1425C12.2658 38.1274 18.1797 47.2881 26.0313 50.173C23.3451 50.4649 20.5184 50.3767 17.6183 49.7783L17.5599 49.9609C18.3998 50.27 21.2494 51.4655 25.5964 51.4655C35.4286 51.4655 42.0753 45.3599 44.7509 40.719L44.5594 40.5895Z" fill="white"/>
<path fill-rule="evenodd" clip-rule="evenodd" d="M24.6133 6.81274C17.1597 6.81274 8.41996 12.189 8.41996 17.1035C8.41996 19.0044 10.1599 20.6104 13.7611 20.6104C22.1209 20.6104 29.8877 14.8702 29.8877 10.4066C29.8877 8.05782 27.6307 6.81274 24.6133 6.81274ZM27.5889 10.2679C27.5889 14.0303 20.3598 18.6295 14.3168 18.6295C11.6469 18.6295 10.2043 17.5794 10.2043 15.8465C10.2043 12.0301 17.5155 7.50904 23.1839 7.50904C26.8795 7.50904 27.5889 9.3885 27.5889 10.2679Z" fill="white"/>
<path fill-rule="evenodd" clip-rule="evenodd" d="M5.45047 19.379C5.24094 19.7412 4.40193 21.3831 4.40193 23.0654C4.40193 26.1856 7.55635 29.0823 13.3583 29.0823C24.5197 29.0823 37.415 20.8712 37.415 13.2493C37.415 9.82798 34.1745 7.96784 31.9246 7.58325L31.8824 7.71671C32.5822 7.93798 35.1458 9.12906 35.1458 12.1768C35.1458 18.2498 23.7602 26.5245 12.4191 26.5245C8.07732 26.5245 5.34197 24.3825 5.34197 21.2624C5.34197 20.2754 5.54755 19.6253 5.60202 19.4369L5.45047 19.379Z" fill="white"/>
<path fill-rule="evenodd" clip-rule="evenodd" d="M42.0169 13.8191C42.323 14.0513 44.1614 15.5827 44.1614 18.4785C44.1614 28.3521 28.6823 38.0611 14.9976 38.0611C6.83683 38.0611 3.11663 34.034 3.28136 30.4581H3.42763C3.74742 32.3152 6.39712 35.6382 13.5397 35.6382C27.2415 35.6382 42.54 25.592 42.54 16.79C42.54 15.2802 42.1298 14.3393 41.8978 13.9209L42.0169 13.8191Z" fill="white"/>
<path fill-rule="evenodd" clip-rule="evenodd" d="M47.1906 23.0368C47.2548 23.2471 47.5882 24.1923 47.5882 25.6727C47.5882 36.6562 31.9233 46.0592 18.2992 46.0592C11.2871 46.0592 7.62533 42.655 6.85221 41.2725L6.97696 41.1803C8.91723 42.8763 12.7389 44.1648 17.1988 44.1648C29.2314 44.1648 47.1858 35.0155 47.0255 23.0767L47.1906 23.0368Z" fill="white"/>
</svg>
