<svg width="179" height="102" viewBox="0 0 179 102" fill="none" xmlns="http://www.w3.org/2000/svg">
<path d="M172.366 41.028C170.897 39.1341 169.014 37.6014 166.861 36.547C164.709 35.4926 162.343 34.9444 159.946 34.9444C157.549 34.9444 155.184 35.4926 153.031 36.547C150.879 37.6014 148.996 39.1341 147.526 41.028C145.557 43.8377 144.524 47.1971 144.574 50.628C144.524 54.0588 145.557 57.4182 147.526 60.228C148.996 62.1218 150.879 63.6545 153.031 64.7089C155.184 65.7633 157.549 66.3115 159.946 66.3115C162.343 66.3115 164.709 65.7633 166.861 64.7089C169.014 63.6545 170.897 62.1218 172.366 60.228C174.335 57.4178 175.368 54.0587 175.318 50.628C175.368 47.1972 174.335 43.8381 172.366 41.028V41.028ZM167.446 54.228C166.318 57.6 163.642 60.228 159.934 60.312C156.226 60.396 153.55 57.6 152.434 54.228C151.636 51.8943 151.636 49.3616 152.434 47.028C153.562 43.656 156.238 41.028 159.934 40.944C163.63 40.86 166.318 43.656 167.446 47.028C168.241 49.3581 168.241 51.8858 167.446 54.216V54.228ZM54.3463 65.508C54.3463 65.7435 54.2528 65.9693 54.0862 66.1359C53.9197 66.3024 53.6938 66.396 53.4583 66.396H48.2983C48.0628 66.396 47.8369 66.3024 47.6704 66.1359C47.5039 65.9693 47.4103 65.7435 47.4103 65.508V23.088C47.4103 22.8524 47.5039 22.6266 47.6704 22.46C47.8369 22.2935 48.0628 22.2 48.2983 22.2H53.4583C53.6938 22.2 53.9197 22.2935 54.0862 22.46C54.2528 22.6266 54.3463 22.8524 54.3463 23.088V65.508ZM42.2263 65.508C42.2263 65.7435 42.1328 65.9693 41.9662 66.1359C41.7997 66.3024 41.5738 66.396 41.3383 66.396H36.1783C35.9428 66.396 35.7169 66.3024 35.5504 66.1359C35.3839 65.9693 35.2903 65.7435 35.2903 65.508V23.088C35.2903 22.8545 35.3822 22.6304 35.5461 22.4642C35.7101 22.2981 35.9329 22.2031 36.1663 22.2H41.3263C41.5618 22.2 41.7877 22.2935 41.9542 22.46C42.1208 22.6266 42.2143 22.8524 42.2143 23.088V65.508H42.2263ZM143.41 36.708V40.308C143.431 40.4633 143.413 40.6215 143.356 40.7678C143.3 40.9142 143.208 41.0441 143.089 41.1456C142.969 41.2471 142.826 41.3171 142.673 41.3489C142.519 41.3808 142.36 41.3736 142.21 41.328C136.378 40.128 132.79 42.72 132.79 48.108V65.508C132.79 65.7435 132.697 65.9693 132.53 66.1359C132.364 66.3024 132.138 66.396 131.902 66.396H126.742C126.507 66.396 126.281 66.3024 126.114 66.1359C125.948 65.9693 125.854 65.7435 125.854 65.508V47.736C125.823 46.0549 126.146 44.3861 126.801 42.8378C127.457 41.2894 128.43 39.896 129.658 38.748C132.181 36.2817 135.575 34.9104 139.102 34.932C140.31 34.9352 141.515 35.0476 142.702 35.268C143.314 35.472 143.41 35.832 143.41 36.756V36.708ZM121.318 50.616C121.384 47.183 120.349 43.8191 118.366 41.016C116.897 39.1221 115.014 37.5894 112.861 36.535C110.709 35.4806 108.343 34.9324 105.946 34.9324C103.549 34.9324 101.184 35.4806 99.0314 36.535C96.8787 37.5894 94.9957 39.1221 93.5263 41.016C91.5761 43.8375 90.5315 47.186 90.5315 50.616C90.5315 54.0459 91.5761 57.3944 93.5263 60.216C94.9721 62.1355 96.8503 63.6868 99.0084 64.744C101.166 65.8011 103.543 66.3342 105.946 66.3C109.094 66.3103 112.172 65.3828 114.79 63.636V67.428C114.79 72.576 110.29 73.512 107.41 73.692C105.429 73.7575 103.445 73.649 101.482 73.368C100.69 73.248 100.138 73.368 100.138 74.22V78.78C100.143 78.8824 100.168 78.983 100.211 79.0758C100.255 79.1687 100.316 79.2521 100.392 79.3212C100.468 79.3903 100.556 79.4438 100.653 79.4786C100.749 79.5134 100.852 79.5288 100.954 79.524C107.638 80.1 112.138 79.98 115.522 78.048C117.893 76.6461 119.653 74.4069 120.454 71.772C121.053 69.7389 121.34 67.627 121.306 65.508V50.616H121.318ZM105.946 60.288C102.238 60.288 99.5623 57.576 98.4343 54.204C97.6361 51.8703 97.6361 49.3376 98.4343 47.004C99.5623 43.632 102.238 40.92 105.946 40.92C114.238 40.92 114.514 49.38 114.514 50.604C114.514 51.828 114.238 60.288 105.946 60.288ZM30.5623 47.508C30.5623 43.416 29.6503 40.308 27.6823 38.16C25.7143 36.012 21.7543 34.944 18.0823 34.944C14.3965 34.9295 10.7729 35.8944 7.58232 37.74C7.48245 37.799 7.39991 37.8834 7.34303 37.9845C7.28615 38.0856 7.25693 38.1999 7.25832 38.316L7.53432 42.828C7.55884 42.9683 7.62021 43.0996 7.71217 43.2085C7.80413 43.3173 7.92336 43.3998 8.05766 43.4474C8.19196 43.495 8.3365 43.5061 8.47648 43.4795C8.61646 43.4529 8.74686 43.3895 8.85432 43.296C13.3543 40.524 18.7543 40.008 21.5023 41.4C22.2583 41.8357 22.8813 42.4692 23.3041 43.2325C23.727 43.9958 23.9338 44.8599 23.9023 45.732V46.392H16.4023C13.1743 46.392 3.28632 47.592 3.28632 56.676V56.772C3.20938 58.1543 3.45939 59.5353 4.01607 60.803C4.57275 62.0706 5.42043 63.1892 6.49032 64.068C8.82731 65.7142 11.6523 66.522 14.5063 66.36H29.6863C29.9218 66.36 30.1477 66.2664 30.3142 66.0999C30.4808 65.9333 30.5743 65.7075 30.5743 65.472V47.472L30.5623 47.508ZM23.9023 60.816H14.9383C13.7882 60.783 12.6768 60.3929 11.7583 59.7C11.2858 59.3682 10.902 58.9255 10.6405 58.4109C10.379 57.8962 10.2477 57.3252 10.2583 56.748C10.2583 55.128 11.3503 51.888 16.8103 51.888H23.9023V60.816ZM73.3423 34.944C64.1623 34.944 60.1423 41.1 58.8583 46.308C58.5052 47.7126 58.3278 49.1556 58.3303 50.604C58.2807 54.0347 59.3136 57.3938 61.2823 60.204C62.7535 62.0959 64.6369 63.6272 66.7891 64.6815C68.9413 65.7358 71.3057 66.2852 73.7023 66.288C78.6583 66.468 81.9703 65.628 84.5023 64.188C84.7492 64.0287 84.9399 63.7959 85.0476 63.5225C85.1552 63.2491 85.1744 62.9488 85.1023 62.664V58.668C85.1023 57.852 84.6103 57.468 83.9023 57.96C80.9386 59.8593 77.4215 60.7048 73.9183 60.36C71.9233 60.3337 70.0069 59.5784 68.5303 58.2367C67.0537 56.8949 66.1189 55.0593 65.9023 53.076H86.3023C86.523 53.076 86.7349 52.9891 86.8921 52.8342C87.0493 52.6792 87.1392 52.4686 87.1423 52.248C87.5023 46.668 85.8823 34.944 73.3423 34.944V34.944ZM66.0103 47.556C66.0516 46.6373 66.2752 45.7361 66.668 44.9046C67.0608 44.0732 67.615 43.3282 68.2984 42.7129C68.9818 42.0976 69.7808 41.6244 70.6487 41.3207C71.5167 41.017 72.4364 40.8889 73.3543 40.944C74.2328 40.8902 75.1127 41.025 75.9347 41.3395C76.7568 41.6539 77.502 42.1406 78.1204 42.767C78.7387 43.3933 79.2159 44.1447 79.5198 44.9707C79.8237 45.7967 79.9473 46.6782 79.8823 47.556H66.0103Z" fill="white"/>
</svg>
