<svg width="133" height="102" viewBox="0 0 133 102" fill="none" xmlns="http://www.w3.org/2000/svg">
<g clip-path="url(#clip0)">
<path d="M123.218 31.9015L115.297 31.8987C114.433 31.8987 113.732 32.5991 113.732 33.4632L113.731 34.5682H114.281C117.858 34.5682 119.188 35.1582 119.188 38.4163V43.048L123.214 43.0494C124.078 43.0498 124.778 42.3499 124.779 41.4859L124.782 33.4664C124.782 32.6023 124.082 31.902 123.218 31.9015V31.9015ZM79.9851 44.3521C79.6195 43.8932 78.9283 43.8297 78.2353 43.8297H77.7157C75.9889 43.8297 75.3116 44.3623 74.9294 46.0191L70.1313 65.9631C69.5325 68.4142 68.691 68.8621 67.2512 68.8621C65.4881 68.8621 64.7822 68.4413 64.0795 65.9535L58.645 46.0095C58.1952 44.3393 57.5316 43.8297 55.8044 43.8297H55.3418C54.6446 43.8297 53.9503 43.8941 53.5939 44.359C53.237 44.8244 53.3575 45.5193 53.5414 46.2021L59.0335 66.3191C60.0636 70.169 61.2882 73.3558 65.8638 73.3558C66.7177 73.3558 67.5078 73.2372 68.1649 73.0155C66.7771 77.38 65.3653 79.305 61.2022 79.7327C60.3574 79.803 59.8084 79.9239 59.5026 80.3341C59.1848 80.7595 59.257 81.3688 59.3706 81.9129L59.4851 82.4288C59.7334 83.6217 60.1569 84.3611 61.496 84.3611C61.6368 84.3611 61.7881 84.3538 61.9504 84.34C68.1668 83.933 71.4975 80.5861 73.4464 72.7883L80.0968 46.1879C80.2546 45.5055 80.3497 44.8106 79.9851 44.3521V44.3521ZM46.5341 59.675V63.7011C46.5341 66.9831 45.3173 68.8832 39.0973 68.8832C34.988 68.8832 32.9904 67.3961 32.9904 64.3371C32.9904 60.9824 34.9945 59.675 40.138 59.675H46.5341ZM39.0973 42.9831C35.7063 42.9831 33.5813 43.4085 32.7752 43.5699C31.3483 43.8799 30.7514 44.2717 30.7514 45.8945V46.3571C30.7514 46.9931 30.8456 47.4336 31.0475 47.7436C31.2825 48.1046 31.6614 48.2876 32.1737 48.2876C32.4234 48.2876 32.7131 48.2458 33.0585 48.1593C33.8738 47.9556 36.4789 47.5344 39.3286 47.5344C44.4468 47.5344 46.5341 48.9521 46.5341 52.4272V55.5285H40.08C31.7833 55.5285 27.9186 58.3272 27.9186 64.3371C27.9186 70.1662 31.9093 73.3765 39.1553 73.3765C47.7661 73.3765 51.6059 70.4463 51.6059 63.8745V52.4272C51.6059 46.0725 47.5145 42.9831 39.0973 42.9831V42.9831ZM22.8322 46.8386C22.8322 51.6243 21.6103 54.2179 15.164 54.2179H5.24123V41.8666C5.24123 40.1541 5.87812 39.5172 7.59063 39.5172H15.164C20.0206 39.5172 22.8322 40.7156 22.8322 46.8386V46.8386ZM15.164 34.5613H6.60746C2.03509 34.5613 -0.00390625 36.6003 -0.00390625 41.1731V70.5419C-0.00390625 72.3082 0.56309 72.8753 2.32986 72.8753H2.90791C4.67422 72.8753 5.24123 72.3082 5.24123 70.5419V59.1159H15.164C23.974 59.1159 28.0773 55.2144 28.0773 46.8386C28.0773 38.4623 23.974 34.5613 15.164 34.5613V34.5613ZM123.989 23.625L119.994 23.6236C119.558 23.6231 119.204 23.27 119.204 22.834L119.206 18.7887C119.206 18.3527 119.56 18 119.995 18L123.991 18.0014C124.427 18.0014 124.78 18.355 124.78 18.7905L124.779 22.8359C124.778 23.2718 124.425 23.625 123.989 23.625V23.625ZM131.829 31.9066L125.946 31.9043C125.304 31.9043 124.784 31.3837 124.784 30.7422L124.786 24.7861C124.787 24.1442 125.307 23.6241 125.949 23.6241L131.832 23.6264C132.474 23.6264 132.994 24.1469 132.994 24.7884L132.991 30.745C132.991 31.3865 132.471 31.9066 131.829 31.9066V31.9066ZM115.292 43.0471C114.428 43.0471 113.729 42.3467 113.729 41.4826L113.731 34.5682H113.155C109.578 34.5682 108.247 35.1587 108.247 38.4168V46.0407C108.247 46.0568 108.245 46.0729 108.245 46.089V47.7601C108.244 47.8181 108.241 47.8719 108.241 47.9317V58.5843C108.241 59.8852 107.99 60.9213 107.473 61.726C106.497 63.2288 104.566 63.9117 101.477 63.9159C98.389 63.9117 96.4586 63.2293 95.4832 61.7279C94.9645 60.9227 94.7134 59.8861 94.7134 58.5843V47.9317C94.7134 47.8719 94.7102 47.8181 94.7093 47.7601V46.089C94.7093 46.0729 94.7074 46.0568 94.707 46.0407V38.4168C94.707 35.1587 93.3766 34.5682 89.7998 34.5682H88.6736C85.0964 34.5682 83.7665 35.1587 83.7665 38.4168V58.5843C83.7665 61.8286 84.4981 64.5753 85.9117 66.7895C88.6419 71.08 93.9307 73.365 101.449 73.365C101.459 73.365 101.468 73.3645 101.477 73.3645C101.487 73.3645 101.495 73.365 101.505 73.365C109.024 73.365 114.313 71.08 117.043 66.7895C118.456 64.5753 119.188 61.8286 119.188 58.5843V43.0484L115.292 43.0471" fill="white"/>
</g>
<defs>
<clipPath id="clip0">
<rect width="133" height="102" fill="white"/>
</clipPath>
</defs>
</svg>
